<svg width="40" height="40" viewBox="0 0 40 40" fill="none" xmlns="http://www.w3.org/2000/svg">
<circle cx="20" cy="20" r="20" fill="#191046"/>
<path d="M28.3334 19.2333V20C28.3324 21.797 27.7505 23.5456 26.6745 24.9849C25.5986 26.4241 24.0862 27.4771 22.3629 27.9866C20.6396 28.4961 18.7978 28.4349 17.1121 27.8122C15.4265 27.1894 13.9873 26.0384 13.0092 24.5309C12.0311 23.0234 11.5666 21.2401 11.6848 19.4469C11.8031 17.6538 12.4978 15.9469 13.6653 14.5809C14.8329 13.2148 16.4107 12.2628 18.1636 11.8668C19.9164 11.4708 21.7503 11.6519 23.3918 12.3833" stroke="white" stroke-width="2" stroke-linecap="round" stroke-linejoin="round"/>
<path d="M28.3333 13.3333L20 21.675L17.5 19.175" stroke="white" stroke-width="2" stroke-linecap="round" stroke-linejoin="round"/>
</svg>
